<svg width="16" height="16" viewBox="0 0 24 24" fill="none" xmlns="http://www.w3.org/2000/svg">
<path d="M15 9V23" stroke="#61646c" stroke-width="2" stroke-linecap="round" stroke-linejoin="round"/>
<path d="M18.3333 11H13.3333C12.7145 11 12.121 11.2634 11.6834 11.7322C11.2458 12.2011 11 12.837 11 13.5C11 14.163 11.2458 14.7989 11.6834 15.2678C12.121 15.7366 12.7145 16 13.3333 16H16.6667C17.2855 16 17.879 16.2634 18.3166 16.7322C18.7542 17.2011 19 17.837 19 18.5C19 19.163 18.7542 19.7989 18.3166 20.2678C17.879 20.7366 17.2855 21 16.6667 21H11" stroke="#61646c" stroke-width="2" stroke-linecap="round" stroke-linejoin="round"/>
<path d="M1 3.5V9H6.5" stroke="#61646c" stroke-width="2" stroke-linecap="round" stroke-linejoin="round"/>
<path d="M1.5 8.50106C6.5 0.500055 18.5 0.000585556 23 8.50035" stroke="#61646c" stroke-width="2" stroke-linecap="round" stroke-linejoin="round"/>
</svg>
