<svg xmlns="http://www.w3.org/2000/svg" width="40" height="40" fill="none" viewBox="0 0 40 40">
    <path fill="#fff" fill-rule="evenodd" d="M3.83.95C3.434.566 2.8.575 2.415.97c-.385.395-.377 1.028.02 1.413l3.668 3.574C4.59 6.602 3.6 8.239 3.6 10v16.667C3.6 28.937 5.245 31 7.533 31h10.735v4.667H13.4c-.552 0-1 .448-1 1s.448 1 1 1h11.734c.553 0 1-.448 1-1s-.447-1-1-1h-4.866V31h10.734c.227 0 .437-.076.605-.203l6.03 5.872c.395.385 1.028.377 1.414-.019.385-.395.377-1.028-.019-1.414L3.83.951zM29.763 29L7.817 7.626c-.09.027-.185.041-.284.041-.951 0-1.933.92-1.933 2.333v16.667C5.6 28.079 6.582 29 7.533 29h22.23zM16.067 6.667c0-.552.448-1 1-1h13.935c2.288 0 3.933 2.064 3.933 4.333v11.667c0 .552-.447 1-1 1-.552 0-1-.448-1-1V10c0-1.412-.982-2.333-1.933-2.333H17.067c-.552 0-1-.448-1-1z" clip-rule="evenodd"/>
</svg>
